<svg width="28" height="27" viewBox="0 0 28 27" fill="none" xmlns="http://www.w3.org/2000/svg">
<path d="M6.64844 14.1419C5.0698 13.5 3.96143 11.9914 3.96143 10.2327C3.96143 8.29218 5.42393 6.49955 7.61768 6.15292C8.30581 4.55753 9.93443 3.37988 11.8339 3.37988C14.2672 3.37988 16.2559 5.22 16.3927 7.53944C17.3175 7.93376 18.0429 8.73879 18.3801 9.70146M6.64844 14.1419C5.65936 15.1307 5.08643 16.4539 5.08643 17.8346C5.08643 20.8783 7.65519 23.3458 10.8239 23.3458L19.4302 23.3458C22.0708 23.3458 24.2114 21.2692 24.2114 18.7076C24.2114 16.8057 23.0313 15.0491 21.3427 14.3334C21.2253 12.354 20.0642 10.6434 18.3801 9.70146M6.64844 14.1419C7.46644 13.3241 8.56909 12.7349 9.86768 12.5309C10.7675 10.4569 12.8973 8.92596 15.3813 8.92596C16.4744 8.92596 17.4988 9.20852 18.3801 9.70146" stroke="#1D5AFF" stroke-width="2" stroke-linecap="round" stroke-linejoin="round"/>
</svg>
