<svg width="28" height="28" viewBox="0 0 28 28" fill="none" xmlns="http://www.w3.org/2000/svg">
<path d="M21.9614 10.7139V20.475C21.9614 21.7174 21.9614 22.3386 21.7162 22.8132C21.5005 23.2306 21.1563 23.57 20.7329 23.7827C20.2516 24.0245 19.6215 24.0245 18.3614 24.0245H9.81143C8.55131 24.0245 7.92125 24.0245 7.43995 23.7827C7.01658 23.57 6.67238 23.2306 6.45666 22.8132C6.21143 22.3386 6.21143 21.7174 6.21143 20.475V7.60808C6.21143 6.36565 6.21143 5.74443 6.45666 5.26988C6.67238 4.85245 7.01658 4.51308 7.43995 4.30039C7.92125 4.05859 8.55131 4.05859 9.81143 4.05859H15.2114M21.9614 10.7139L15.2114 4.05859M21.9614 10.7139H18.8114C17.5513 10.7139 16.9212 10.7139 16.4399 10.4721C16.0166 10.2594 15.6724 9.92003 15.4567 9.5026C15.2114 9.02805 15.2114 8.40683 15.2114 7.1644V4.05859M9.58643 12.9323H11.8364M9.58643 20.6968L12.9614 17.3692L15.2114 19.5876L18.5864 16.26" stroke="#1D5AFF" stroke-width="2" stroke-linecap="round" stroke-linejoin="round"/>
</svg>
