<svg width="28" height="28" viewBox="0 0 28 28" fill="none" xmlns="http://www.w3.org/2000/svg">
<path d="M5.08643 13.7023H5.09768M9.58643 13.7023H9.59768M18.5864 13.7023H18.5977M14.0864 13.7023H14.0977M23.0864 13.7023H23.0977M10.1489 4.82861H8.68643C7.42631 4.82861 6.79625 4.82861 6.31495 5.07041C5.89158 5.2831 5.54738 5.62247 5.33166 6.0399C5.08643 6.51445 5.08643 7.13567 5.08643 8.3781V9.82008M18.0239 4.82861H19.4864C20.7465 4.82861 21.3766 4.82861 21.8579 5.07041C22.2813 5.2831 22.6255 5.62247 22.8412 6.0399C23.0864 6.51445 23.0864 7.13567 23.0864 8.3781V9.82008M23.0864 17.5846V19.0266C23.0864 20.269 23.0864 20.8902 22.8412 21.3648C22.6255 21.7822 22.2813 22.1216 21.8579 22.3343C21.3766 22.5761 20.7465 22.5761 19.4864 22.5761H18.0239M5.08643 17.5846V19.0266C5.08643 20.269 5.08643 20.8902 5.33166 21.3648C5.54738 21.7822 5.89158 22.1216 6.31495 22.3343C6.79625 22.5761 7.42631 22.5761 8.68643 22.5761H10.1489" stroke="#1D5AFF" stroke-width="2" stroke-linecap="round" stroke-linejoin="round"/>
</svg>
