<svg width="28" height="27" viewBox="0 0 28 27" fill="none" xmlns="http://www.w3.org/2000/svg">
<path d="M11.8364 19.225H10.9364C9.67631 19.225 9.04625 19.225 8.56495 18.9832C8.14158 18.7705 7.79738 18.4311 7.58166 18.0137C7.33643 17.5391 7.33643 16.9179 7.33643 15.6755V12.5697C7.33643 13.6033 7.33643 14.1202 7.5077 14.5279C7.73606 15.0714 8.17407 15.5033 8.72539 15.7285C9.13887 15.8973 9.66306 15.8973 10.7114 15.8973M3.96143 9.24204H24.2114M14.0864 12.5697H20.8364M15.2114 15.8973H20.8364M7.56143 22.5526H20.6114C21.8715 22.5526 22.5016 22.5526 22.9829 22.3108C23.4063 22.0981 23.7505 21.7588 23.9662 21.3413C24.2114 20.8668 24.2114 20.2456 24.2114 19.0031V8.35466C24.2114 7.11223 24.2114 6.49101 23.9662 6.01646C23.7505 5.59904 23.4063 5.25966 22.9829 5.04697C22.5016 4.80518 21.8715 4.80518 20.6114 4.80518H7.56143C6.30131 4.80518 5.67125 4.80518 5.18995 5.04697C4.76658 5.25966 4.42238 5.59904 4.20666 6.01646C3.96143 6.49101 3.96143 7.11223 3.96143 8.35466V19.0031C3.96143 20.2456 3.96143 20.8668 4.20666 21.3413C4.42238 21.7588 4.76658 22.0981 5.18995 22.3108C5.67125 22.5526 6.30131 22.5526 7.56143 22.5526Z" stroke="#1D5AFF" stroke-width="2" stroke-linecap="round" stroke-linejoin="round"/>
</svg>
