<svg width="28" height="27" viewBox="0 0 28 27" fill="none" xmlns="http://www.w3.org/2000/svg">
<path d="M5.49559 5.125L4.58643 6.02141L6.18803 8.75229L7.22668 8.60209L13.5666 14.8538L13.0258 15.3658C12.7489 15.6389 12.7489 16.0526 13.0258 16.3257L13.307 16.6036C13.5839 16.8767 14.0077 16.8767 14.2154 16.6036L15.038 17.414C14.9688 17.8236 15.038 18.3104 15.3843 18.6517L19.1276 22.3213C19.8892 23.0723 21.1356 23.0723 21.8973 22.3213C22.7975 21.5021 22.7892 20.2773 22.0275 19.5263L18.3056 15.8348C17.9594 15.4935 17.4657 15.3569 17.0503 15.4935L16.1411 14.6831C16.3488 14.41 16.3488 13.9922 16.1411 13.7867L15.8814 13.5313C15.8185 13.4666 15.7429 13.4151 15.6593 13.3799C15.5756 13.3447 15.4856 13.3266 15.3946 13.3266C15.3037 13.3266 15.2137 13.3447 15.13 13.3799C15.0464 13.4151 14.9708 13.4666 14.9079 13.5313L14.4536 13.9792L8.11369 7.72821L8.26464 6.70413L5.49559 5.125ZM18.9981 5.14616C17.6319 5.0342 15.8205 5.9272 14.973 6.70345C13.9301 7.73162 14.1005 9.0759 14.9293 10.3737L13.4586 11.8245L14.4973 12.9763C15.0512 12.4984 15.8683 12.4984 16.4222 12.9763L16.704 13.2535L16.7691 13.3176L17.375 12.7203C18.6269 13.446 19.9301 13.5504 20.9237 12.5707C21.8932 11.6832 22.9443 9.49441 22.4596 8.19724L20.5124 10.1812C20.2355 10.4543 19.8158 10.4543 19.5389 10.1812L17.526 8.19724C17.4603 8.13517 17.4081 8.06066 17.3724 7.97818C17.3367 7.8957 17.3183 7.80696 17.3183 7.71729C17.3183 7.62762 17.3367 7.53887 17.3724 7.45639C17.4081 7.37391 17.4603 7.2994 17.526 7.23733L19.5396 5.25335C19.3665 5.19327 19.1933 5.16255 18.9981 5.14616ZM11.3813 13.659L8.87052 16.1339C8.60072 16.0748 8.32497 16.0461 8.0486 16.0485C6.10978 16.0485 4.58643 17.5505 4.58643 19.4621C4.58643 21.3737 6.10978 22.8757 8.0486 22.8757C9.98742 22.8757 11.5108 21.3737 11.5108 19.4621C11.5108 19.1119 11.4547 18.7753 11.3591 18.4592L12.8306 17.0084L12.6145 16.7312C12.0606 16.1851 12.0647 15.3576 12.5494 14.8107L11.3813 13.659ZM16.7477 16.7742C16.8342 16.7742 16.9159 16.7906 16.9852 16.8596L21.0754 20.8917C21.2139 21.0283 21.2139 21.2454 21.0754 21.3819C20.9369 21.5185 20.7153 21.5185 20.5768 21.3819L16.488 17.3498C16.3495 17.2132 16.3495 16.9961 16.488 16.8596C16.5572 16.7913 16.6611 16.7742 16.7477 16.7742ZM8.525 17.6905L9.84478 18.9924L9.36838 20.7627L7.5729 21.2324L6.25242 19.9305L6.72882 18.1602L8.525 17.6905Z" fill="#FAFAFA"/>
</svg>
