<svg width="28" height="27" viewBox="0 0 28 27" fill="none" xmlns="http://www.w3.org/2000/svg">
<path d="M6.64844 14.3245C5.0698 13.6826 3.96143 12.174 3.96143 10.4153C3.96143 8.4748 5.42393 6.68217 7.61768 6.33554C8.30581 4.74015 9.93443 3.5625 11.8339 3.5625C14.2672 3.5625 16.2559 5.40262 16.3927 7.72206C17.3175 8.11638 18.0429 8.92141 18.3801 9.88407M6.64844 14.3245C5.65936 15.3133 5.08643 16.6365 5.08643 18.0172C5.08643 21.0609 7.65519 23.5284 10.8239 23.5284L19.4302 23.5284C22.0708 23.5284 24.2114 21.4518 24.2114 18.8902C24.2114 16.9883 23.0313 15.2317 21.3427 14.516C21.2253 12.5366 20.0642 10.826 18.3801 9.88407M6.64844 14.3245C7.46644 13.5067 8.56909 12.9175 9.86768 12.7135C10.7675 10.6395 12.8973 9.10858 15.3813 9.10858C16.4744 9.10858 17.4988 9.39114 18.3801 9.88407" stroke="#FAFAFA" stroke-width="2" stroke-linecap="round" stroke-linejoin="round"/>
</svg>
