<svg width="28" height="28" viewBox="0 0 28 28" fill="none" xmlns="http://www.w3.org/2000/svg">
<path d="M5.08643 13.885H5.09768M9.58643 13.885H9.59768M18.5864 13.885H18.5977M14.0864 13.885H14.0977M23.0864 13.885H23.0977M10.1489 5.01123H8.68643C7.42631 5.01123 6.79625 5.01123 6.31495 5.25303C5.89158 5.46571 5.54738 5.80509 5.33166 6.22252C5.08643 6.69706 5.08643 7.31828 5.08643 8.56072V10.0027M18.0239 5.01123H19.4864C20.7465 5.01123 21.3766 5.01123 21.8579 5.25303C22.2813 5.46571 22.6255 5.80509 22.8412 6.22252C23.0864 6.69706 23.0864 7.31828 23.0864 8.56072V10.0027M23.0864 17.7672V19.2092C23.0864 20.4516 23.0864 21.0729 22.8412 21.5474C22.6255 21.9648 22.2813 22.3042 21.8579 22.5169C21.3766 22.7587 20.7465 22.7587 19.4864 22.7587H18.0239M5.08643 17.7672V19.2092C5.08643 20.4516 5.08643 21.0729 5.33166 21.5474C5.54738 21.9648 5.89158 22.3042 6.31495 22.5169C6.79625 22.7587 7.42631 22.7587 8.68643 22.7587H10.1489" stroke="#FAFAFA" stroke-width="2" stroke-linecap="round" stroke-linejoin="round"/>
</svg>
