<svg width="28" height="28" viewBox="0 0 28 28" fill="none" xmlns="http://www.w3.org/2000/svg">
<path d="M21.9614 10.8965V20.6576C21.9614 21.9 21.9614 22.5213 21.7162 22.9958C21.5005 23.4132 21.1563 23.7526 20.7329 23.9653C20.2516 24.2071 19.6215 24.2071 18.3614 24.2071H9.81143C8.55131 24.2071 7.92125 24.2071 7.43995 23.9653C7.01658 23.7526 6.67238 23.4132 6.45666 22.9958C6.21143 22.5213 6.21143 21.9 6.21143 20.6576V7.7907C6.21143 6.54826 6.21143 5.92704 6.45666 5.4525C6.67238 5.03507 7.01658 4.69569 7.43995 4.48301C7.92125 4.24121 8.55131 4.24121 9.81143 4.24121H15.2114M21.9614 10.8965L15.2114 4.24121M21.9614 10.8965H18.8114C17.5513 10.8965 16.9212 10.8965 16.4399 10.6547C16.0166 10.442 15.6724 10.1026 15.4567 9.68522C15.2114 9.21067 15.2114 8.58945 15.2114 7.34701V4.24121M9.58643 13.1149H11.8364M9.58643 20.8794L12.9614 17.5518L15.2114 19.7702L18.5864 16.4426" stroke="#FAFAFA" stroke-width="2" stroke-linecap="round" stroke-linejoin="round"/>
</svg>
