<svg width="28" height="28" viewBox="0 0 28 28" fill="none" xmlns="http://www.w3.org/2000/svg">
<path d="M11.8364 19.4076H10.9364C9.67631 19.4076 9.04625 19.4076 8.56495 19.1658C8.14158 18.9531 7.79738 18.6137 7.58166 18.1963C7.33643 17.7218 7.33643 17.1005 7.33643 15.8581V12.7523C7.33643 13.786 7.33643 14.3028 7.5077 14.7105C7.73606 15.254 8.17407 15.6859 8.72539 15.9111C9.13887 16.0799 9.66306 16.0799 10.7114 16.0799M3.96143 9.42465H24.2114M14.0864 12.7523H20.8364M15.2114 16.0799H20.8364M7.56143 22.7352H20.6114C21.8715 22.7352 22.5016 22.7352 22.9829 22.4934C23.4063 22.2808 23.7505 21.9414 23.9662 21.524C24.2114 21.0494 24.2114 20.4282 24.2114 19.1857V8.53728C24.2114 7.29484 24.2114 6.67363 23.9662 6.19908C23.7505 5.78165 23.4063 5.44228 22.9829 5.22959C22.5016 4.98779 21.8715 4.98779 20.6114 4.98779H7.56143C6.30131 4.98779 5.67125 4.98779 5.18995 5.22959C4.76658 5.44228 4.42238 5.78165 4.20666 6.19908C3.96143 6.67363 3.96143 7.29484 3.96143 8.53728V19.1857C3.96143 20.4282 3.96143 21.0494 4.20666 21.524C4.42238 21.9414 4.76658 22.2808 5.18995 22.4934C5.67125 22.7352 6.30131 22.7352 7.56143 22.7352Z" stroke="#FAFAFA" stroke-width="2" stroke-linecap="round" stroke-linejoin="round"/>
</svg>
