<svg width="28" height="27" viewBox="0 0 28 27" fill="none" xmlns="http://www.w3.org/2000/svg">
<path d="M5.49559 4.94238L4.58643 5.83879L6.18803 8.56967L7.22668 8.41947L13.5666 14.6711L13.0258 15.1832C12.7489 15.4563 12.7489 15.87 13.0258 16.1431L13.307 16.4209C13.5839 16.694 14.0077 16.694 14.2154 16.4209L15.038 17.2313C14.9688 17.641 15.038 18.1277 15.3843 18.4691L19.1276 22.1387C19.8892 22.8897 21.1356 22.8897 21.8973 22.1387C22.7975 21.3195 22.7892 20.0947 22.0275 19.3437L18.3056 15.6522C17.9594 15.3108 17.4657 15.1743 17.0503 15.3108L16.1411 14.5005C16.3488 14.2274 16.3488 13.8095 16.1411 13.604L15.8814 13.3487C15.8185 13.284 15.7429 13.2325 15.6593 13.1973C15.5756 13.1621 15.4856 13.144 15.3946 13.144C15.3037 13.144 15.2137 13.1621 15.13 13.1973C15.0464 13.2325 14.9708 13.284 14.9079 13.3487L14.4536 13.7966L8.11369 7.54559L8.26464 6.52151L5.49559 4.94238ZM18.9981 4.96355C17.6319 4.85158 15.8205 5.74458 14.973 6.52083C13.9301 7.54901 14.1005 8.89328 14.9293 10.1911L13.4586 11.6419L14.4973 12.7937C15.0512 12.3158 15.8683 12.3158 16.4222 12.7937L16.704 13.0708L16.7691 13.135L17.375 12.5376C18.6269 13.2634 19.9301 13.3678 20.9237 12.3881C21.8932 11.5006 22.9443 9.31179 22.4596 8.01462L20.5124 9.9986C20.2355 10.2717 19.8158 10.2717 19.5389 9.9986L17.526 8.01462C17.4603 7.95256 17.4081 7.87804 17.3724 7.79556C17.3367 7.71308 17.3183 7.62434 17.3183 7.53467C17.3183 7.445 17.3367 7.35626 17.3724 7.27377C17.4081 7.19129 17.4603 7.11678 17.526 7.05472L19.5396 5.07073C19.3665 5.01065 19.1933 4.97993 18.9981 4.96355ZM11.3813 13.4764L8.87052 15.9512C8.60072 15.8921 8.32497 15.8635 8.0486 15.8659C6.10978 15.8659 4.58643 17.3679 4.58643 19.2795C4.58643 21.1911 6.10978 22.6931 8.0486 22.6931C9.98742 22.6931 11.5108 21.1911 11.5108 19.2795C11.5108 18.9293 11.4547 18.5927 11.3591 18.2766L12.8306 16.8258L12.6145 16.5486C12.0606 16.0024 12.0647 15.175 12.5494 14.6281L11.3813 13.4764ZM16.7477 16.5916C16.8342 16.5916 16.9159 16.608 16.9852 16.677L21.0754 20.7091C21.2139 20.8457 21.2139 21.0628 21.0754 21.1993C20.9369 21.3358 20.7153 21.3358 20.5768 21.1993L16.488 17.1672C16.3495 17.0306 16.3495 16.8135 16.488 16.677C16.5572 16.6087 16.6611 16.5916 16.7477 16.5916ZM8.525 17.5078L9.84478 18.8098L9.36838 20.5801L7.5729 21.0498L6.25242 19.7478L6.72882 17.9775L8.525 17.5078Z" fill="#1D5AFF"/>
</svg>
