<svg width="123" height="18" viewBox="0 0 123 18" fill="none" xmlns="http://www.w3.org/2000/svg">
<g opacity="0.8">
<path fill-rule="evenodd" clip-rule="evenodd" d="M30.8814 17.305H27.9403L28.1241 16.2284H28.0716C27.3888 17.2 26.0758 17.6464 24.9204 17.6464C21.7955 17.6464 20.43 15.178 20.9552 12.3157C21.5329 9.05948 24.2377 7.01123 26.8899 7.01123C28.4917 7.01123 29.2533 7.79902 29.5159 8.40299H29.5684L29.7522 7.3526H32.6933L30.8814 17.305ZM25.9183 14.8891C27.7827 14.8891 28.6755 13.3135 28.8594 12.3682C29.0694 11.1602 28.518 9.84727 26.8374 9.84727C25.1568 9.84727 24.1326 11.2915 23.9488 12.3945C23.7387 13.3135 24.1326 14.8891 25.9183 14.8891Z" fill="black"/>
<path fill-rule="evenodd" clip-rule="evenodd" d="M34.2945 7.37852H37.0781L36.8942 8.4289H36.9468C37.2619 7.95623 37.9709 7.03714 39.6778 7.03714L39.1263 10.0307C37.7608 10.0833 36.7629 10.3459 36.4741 11.8689L35.4762 17.3309H32.5352L34.2945 7.37852Z" fill="black"/>
<path fill-rule="evenodd" clip-rule="evenodd" d="M41.6213 3.51935H44.5623L43.1968 10.9771H43.2494L46.6368 7.37951H50.1294L45.6127 11.7386L48.1862 17.3056H44.8512L42.9605 12.5264H42.908L42.0414 17.3056H39.1003L41.6213 3.51935Z" fill="black"/>
<path fill-rule="evenodd" clip-rule="evenodd" d="M58.5328 14.206C57.85 15.3089 57.0097 16.1755 56.0644 16.7269C55.1453 17.3046 54.0949 17.6198 53.0971 17.6198C50.261 17.6198 48.2916 15.3089 48.843 12.3678C49.3419 9.61058 51.9942 7.03714 54.9877 7.03714C57.9813 7.03714 59.7407 9.42676 59.1893 12.4729C59.1368 12.8668 59.058 13.0243 58.9792 13.2607H51.6003C51.5477 14.4423 52.4143 15.1251 53.5697 15.1251C54.4888 15.1251 55.0403 14.7049 55.5392 14.1798H58.5328V14.206ZM56.4583 11.2387C56.432 10.661 56.0644 9.53181 54.5413 9.53181C53.0183 9.53181 52.2305 10.6347 51.9942 11.2387H56.4583Z" fill="black"/>
<path fill-rule="evenodd" clip-rule="evenodd" d="M93.5105 17.305H90.5694L90.7532 16.2284H90.7007C90.018 17.2 88.705 17.6464 87.5496 17.6464C84.4247 17.6464 83.0592 15.178 83.5844 12.3157C84.1621 9.05948 86.8668 7.01123 89.519 7.01123C91.1209 7.01123 91.8824 7.79902 92.145 8.40299H92.1975L92.3813 7.3526H95.3224L93.5105 17.305ZM88.5474 14.8891C90.4119 14.8891 91.3047 13.3135 91.4885 12.3682C91.6986 11.1602 91.1471 9.84727 89.4665 9.84727C87.7859 9.84727 86.7618 11.2915 86.578 12.3945C86.3942 13.3135 86.788 14.8891 88.5474 14.8891Z" fill="black"/>
<path fill-rule="evenodd" clip-rule="evenodd" d="M112.339 13.5233C111.393 15.7816 109.082 17.6198 106.404 17.6198C103.41 17.6198 101.572 15.2564 102.097 12.3153C102.649 9.4005 105.327 7.03714 108.268 7.03714C110.894 7.03714 112.68 8.77028 112.706 11.2124H109.713C109.529 10.5297 109.056 9.82066 107.848 9.82066C106.456 9.76814 105.301 10.9236 105.038 12.3416C104.776 13.7859 105.511 14.8625 106.903 14.8625C108.111 14.8625 108.846 14.1535 109.266 13.5233H112.339Z" fill="black"/>
<path fill-rule="evenodd" clip-rule="evenodd" d="M115.122 3.51935H118.063L117.196 8.2986H117.249C117.905 7.40577 118.982 7.06439 120.006 7.06439C120.952 7.06439 122.002 7.40577 122.501 8.1673C123.157 9.1389 123.079 10.0317 122.764 11.7911L121.739 17.3319H118.798L119.796 11.9224C119.875 11.4497 120.164 9.84791 118.588 9.84791C116.934 9.84791 116.671 11.3184 116.593 11.8174L115.595 17.3319H112.654L115.122 3.51935Z" fill="black"/>
<path fill-rule="evenodd" clip-rule="evenodd" d="M16.9637 3.49188L11.738 11.3435V3.49188H9.21712L0 17.3044H3.57131L8.79697 9.45281V17.3044H11.3442L16.5698 9.45281V17.3044H19.5109V3.49188H16.9637Z" fill="black"/>
<path fill-rule="evenodd" clip-rule="evenodd" d="M66.6473 7.37951H64.7828L65.3343 4.46469H62.7346L62.5245 5.59385C62.2882 6.88058 61.5004 7.27447 60.3975 7.37951H60.345L59.9248 9.63784H61.3691L59.9511 17.3056H62.8921L64.3102 9.63784H66.1746L66.6473 7.37951Z" fill="black"/>
<path fill-rule="evenodd" clip-rule="evenodd" d="M87.8388 0L82.1667 3.51879H83.7423L78.5166 11.3441V3.49253H75.9695L70.7438 11.3441V3.49253H67.8027V17.3051H70.3499L75.5756 9.45345V17.3051H78.0965L87.3136 3.51879H88.7316L87.8388 0Z" fill="black"/>
<path fill-rule="evenodd" clip-rule="evenodd" d="M102.727 7.37951H100.863L101.414 4.46469H98.8147L98.6046 5.59385C98.3682 6.88058 97.5805 7.27447 96.4776 7.37951H96.425L96.0049 9.63784H97.4492L96.0311 17.3056H98.9722L100.39 9.63784H102.255L102.727 7.37951Z" fill="black"/>
</g>
</svg>
