<svg width="104" height="25" viewBox="0 0 104 25" fill="none" xmlns="http://www.w3.org/2000/svg">
<g opacity="0.8" clip-path="url(#clip0_504_2537)">
<path d="M24.3277 12.2718C24.3277 19.049 18.8814 24.5437 12.1638 24.5437C5.44544 24.5437 0 19.049 0 12.2718C0 5.49378 5.44585 0 12.1638 0C18.8814 0 24.3277 5.4942 24.3277 12.2718Z" fill="black"/>
<path d="M13.7852 12.2718H10.339V8.59029H13.7852C14.0248 8.59029 14.262 8.6379 14.4834 8.73041C14.7048 8.82292 14.9059 8.95851 15.0753 9.12944C15.2448 9.30037 15.3792 9.5033 15.4708 9.72663C15.5625 9.94996 15.6097 10.1893 15.6097 10.4311C15.6097 10.6728 15.5625 10.9122 15.4708 11.1355C15.3792 11.3588 15.2448 11.5618 15.0753 11.7327C14.9059 11.9036 14.7048 12.0392 14.4834 12.1317C14.262 12.2242 14.0248 12.2718 13.7852 12.2718ZM13.7852 6.13593H7.90625V18.4078H10.339V14.7262H13.7852C16.1364 14.7262 18.0425 12.8032 18.0425 10.4311C18.0425 8.05896 16.1364 6.13593 13.7852 6.13593Z" fill="#DA552F"/>
<path d="M37.106 10.7718C37.106 10.0965 36.5918 9.68734 35.9237 9.68734H34.1328V11.8437H35.9241C36.5922 11.8437 37.106 11.4345 37.106 10.7718ZM32.4368 16.3621V8.18106H36.162C37.8943 8.18106 38.8369 9.36208 38.8369 10.7718C38.8369 12.1694 37.8822 13.35 36.162 13.35H34.1328V16.3621H32.4368ZM39.8694 16.3621V10.3979H41.3849V11.181C41.803 10.6749 42.5081 10.2535 43.2249 10.2535V11.7472C43.1167 11.7233 42.9857 11.7115 42.8068 11.7115C42.3051 11.7115 41.6358 12.0003 41.3849 12.3746V16.3621H39.8694ZM48.3267 13.3017C48.3267 12.3981 47.8001 11.615 46.8449 11.615C45.901 11.615 45.3765 12.3981 45.3765 13.3022C45.3765 14.2175 45.901 15.0007 46.8449 15.0007C47.8001 15.0007 48.3267 14.2175 48.3267 13.3017ZM43.7994 13.3017C43.7994 11.6515 44.9459 10.2535 46.8449 10.2535C48.756 10.2535 49.9025 11.6511 49.9025 13.3017C49.9025 14.9524 48.756 16.3621 46.8449 16.3621C44.9459 16.3621 43.7994 14.9524 43.7994 13.3017ZM55.006 14.338V12.2777C54.7552 11.8916 54.2061 11.615 53.7039 11.615C52.8328 11.615 52.2355 12.3016 52.2355 13.3022C52.2355 14.3136 52.8328 15.0007 53.7039 15.0007C54.2061 15.0007 54.7552 14.7241 55.006 14.338ZM55.006 16.3621V15.4707C54.5518 16.0486 53.9315 16.3621 53.2264 16.3621C51.7816 16.3621 50.6709 15.2541 50.6709 13.3017C50.6709 11.4106 51.7579 10.2535 53.2264 10.2535C53.907 10.2535 54.5518 10.5431 55.006 11.1449V8.18106H56.5344V16.3621H55.006ZM61.9366 16.3621V15.4825C61.5431 15.9164 60.8504 16.3621 59.9065 16.3621C58.641 16.3621 58.0441 15.6634 58.0441 14.5306V10.3979H59.56V13.9283C59.56 14.7358 59.9781 15.0007 60.6229 15.0007C61.2078 15.0007 61.6741 14.6754 61.9366 14.3375V10.3979H63.4533V16.3621H61.9366ZM64.5923 13.3017C64.5923 11.5189 65.8819 10.2535 67.6499 10.2535C68.8322 10.2535 69.5486 10.7718 69.9309 11.3019L68.9391 12.2412C68.665 11.8316 68.2469 11.615 67.7215 11.615C66.8017 11.615 66.1573 12.2899 66.1573 13.3022C66.1573 14.3136 66.8017 15.0007 67.7215 15.0007C68.2469 15.0007 68.665 14.7598 68.9391 14.3619L69.9309 15.302C69.5486 15.8321 68.8322 16.3621 67.6499 16.3621C65.8819 16.3621 64.5923 15.0972 64.5923 13.3017ZM71.235 14.7597V11.7354H70.2799V10.3979H71.235V8.80724H72.7522V10.3979H73.9216V11.7354H72.7522V14.3501C72.7522 14.7237 72.9423 15.0007 73.2772 15.0007C73.5035 15.0007 73.7198 14.9163 73.8022 14.8202L74.1254 15.9882C73.8987 16.1938 73.4922 16.3621 72.8591 16.3621C71.7962 16.3621 71.235 15.8081 71.235 14.7597ZM83.6368 16.3621V12.8317H79.8745V16.3621H78.1797V8.18106H79.8745V11.3376H83.6368V8.18148H85.3445V16.3621H83.6368ZM90.7721 16.3621V15.4825C90.3781 15.9164 89.6855 16.3621 88.742 16.3621C87.4761 16.3621 86.8791 15.6634 86.8791 14.5306V10.3979H88.395V13.9283C88.395 14.7358 88.8131 15.0007 89.4583 15.0007C90.0432 15.0007 90.5096 14.6754 90.7721 14.3375V10.3979H92.2888V16.3621H90.7721ZM97.6893 16.3621V12.6999C97.6893 11.8924 97.2725 11.6154 96.6268 11.6154C96.0299 11.6154 95.5764 11.9528 95.3131 12.2903V16.3626H93.7972V10.3979H95.3131V11.1449C95.6838 10.7114 96.4001 10.2535 97.3316 10.2535C98.6095 10.2535 99.2185 10.9762 99.2185 12.1085V16.3621H97.6897H97.6893ZM101.026 14.7597V11.7354H100.071V10.3979H101.026V8.80724H102.543V10.3979H103.713V11.7354H102.543V14.3501C102.543 14.7237 102.734 15.0007 103.068 15.0007C103.295 15.0007 103.511 14.9163 103.594 14.8202L103.916 15.9882C103.69 16.1938 103.283 16.3621 102.65 16.3621C101.587 16.3621 101.026 15.8081 101.026 14.7597Z" fill="black"/>
</g>
<defs>
<clipPath id="clip0_504_2537">
<rect width="104" height="24.7619" fill="white"/>
</clipPath>
</defs>
</svg>
