<svg width="52" height="39" viewBox="0 0 52 39" fill="none" xmlns="http://www.w3.org/2000/svg">
<g opacity="0.7">
<path d="M18.4969 10.3797V14.3753H20.6543V17.3285H18.4969V21.0548C18.4969 21.5065 18.5399 21.8018 18.6258 21.9408C18.7548 22.1666 18.9782 22.2795 19.2962 22.2795C19.5885 22.2795 19.9924 22.1926 20.5081 22.0189L20.8004 24.7984C19.8291 25.0156 18.9267 25.1285 18.0843 25.1285C17.1131 25.1285 16.3911 24.9982 15.927 24.7463C15.4629 24.4857 15.1276 24.0949 14.9042 23.5737C14.6807 23.0526 14.569 22.2013 14.569 21.0287V17.3285H13.125V14.3753H14.569V12.447L18.4969 10.3797ZM20.9035 19.665C20.9035 18.0581 21.445 16.7379 22.5194 15.7042C23.5938 14.6619 25.0463 14.1408 26.8857 14.1408C28.9829 14.1408 30.5643 14.7488 31.6301 15.9735C32.4896 16.955 32.9194 18.171 32.9194 19.6042C32.9194 21.2198 32.3865 22.5488 31.3207 23.5824C30.2549 24.616 28.7766 25.1285 26.8943 25.1285C25.2096 25.1285 23.8516 24.7029 22.8202 23.843C21.5395 22.7746 20.9035 21.3849 20.9035 19.665ZM24.9174 19.6563C24.9174 20.5944 25.1065 21.2893 25.4847 21.7323C25.8629 22.184 26.3356 22.4098 26.9114 22.4098C27.4873 22.4098 27.96 22.1926 28.3382 21.7497C28.7078 21.3067 28.8969 20.5944 28.8969 19.6216C28.8969 18.7096 28.7078 18.0321 28.3382 17.5891C27.96 17.1461 27.5045 16.9203 26.9458 16.9203C26.3614 16.9203 25.88 17.1461 25.5019 17.5978C25.1065 18.0408 24.9174 18.7269 24.9174 19.6563ZM33.6586 28.8895V14.3753H37.3716V15.9301C37.8873 15.2786 38.36 14.8356 38.7812 14.6011C39.3571 14.2884 40.0017 14.1321 40.6979 14.1321C42.0817 14.1321 43.1561 14.6706 43.9124 15.7477C44.6688 16.8247 45.047 18.1537 45.047 19.7345C45.047 21.4804 44.6344 22.818 43.8093 23.7387C42.9842 24.6595 41.9442 25.1198 40.6807 25.1198C40.0705 25.1198 39.5118 25.0156 39.0133 24.8071C38.5062 24.5987 38.0592 24.286 37.6638 23.869V28.8895H33.6586ZM37.6381 19.665C37.6381 20.4989 37.81 21.1156 38.1538 21.5151C38.4976 21.9147 38.9359 22.1232 39.4602 22.1232C39.9243 22.1232 40.3111 21.9321 40.6205 21.5412C40.93 21.159 41.0847 20.4989 41.0847 19.5782C41.0847 18.7269 40.9214 18.1016 40.5948 17.702C40.2681 17.3024 39.8728 17.1027 39.4086 17.1027C38.9015 17.1027 38.4804 17.3024 38.1452 17.7107C37.81 18.1016 37.6381 18.7617 37.6381 19.665Z" fill="black"/>
<path d="M9.0248 25.3891C10.4489 25.3891 11.6033 24.2224 11.6033 22.7833C11.6033 21.3441 10.4489 20.1775 9.0248 20.1775C7.60073 20.1775 6.44629 21.3441 6.44629 22.7833C6.44629 24.2224 7.60073 25.3891 9.0248 25.3891Z" fill="black"/>
</g>
</svg>
