<svg width="20" height="21" viewBox="0 0 20 21" fill="none" xmlns="http://www.w3.org/2000/svg">
<path d="M4.29977 3.5H19L17 10.5H5.37671M18 14.5H6L4 1.5H1M7 18.5C7 19.0523 6.55228 19.5 6 19.5C5.44772 19.5 5 19.0523 5 18.5C5 17.9477 5.44772 17.5 6 17.5C6.55228 17.5 7 17.9477 7 18.5ZM18 18.5C18 19.0523 17.5523 19.5 17 19.5C16.4477 19.5 16 19.0523 16 18.5C16 17.9477 16.4477 17.5 17 17.5C17.5523 17.5 18 17.9477 18 18.5Z" stroke="black" stroke-width="1.5" stroke-linecap="round" stroke-linejoin="round"/>
</svg>
