<svg width="32" height="31" viewBox="0 0 32 31" fill="none" xmlns="http://www.w3.org/2000/svg">
<g opacity="0.8">
<path d="M4.8623 12.9167C4.8623 10.4806 4.8623 9.26383 5.61922 8.50692C6.37614 7.75 7.59289 7.75 10.029 7.75H22.9456C25.3817 7.75 26.5985 7.75 27.3554 8.50692C28.1123 9.26383 28.1123 10.4806 28.1123 12.9167V18.0833C28.1123 20.5194 28.1123 21.7362 27.3554 22.4931C26.5985 23.25 25.3817 23.25 22.9456 23.25H10.029C7.59289 23.25 6.37614 23.25 5.61922 22.4931C4.8623 21.7362 4.8623 20.5194 4.8623 18.0833V12.9167Z" fill="#4F4F4F" fill-opacity="0.25"/>
<path d="M8.73747 20.6667C9.45083 20.6667 10.0291 20.0884 10.0291 19.375C10.0291 18.6616 9.45083 18.0833 8.73747 18.0833C8.0241 18.0833 7.4458 18.6616 7.4458 19.375C7.4458 20.0884 8.0241 20.6667 8.73747 20.6667Z" fill="black"/>
<path d="M4.8623 11.625H28.1123V14.2083H4.8623V11.625Z" fill="black"/>
</g>
</svg>
