<svg width="27" height="26" viewBox="0 0 27 26" fill="none" xmlns="http://www.w3.org/2000/svg">
<g clip-path="url(#clip0_526_5032)">
<path d="M26.7694 13.0793C26.7694 5.85455 20.9486 -0.00195312 13.7694 -0.00195312C6.58686 -0.000328125 0.766113 5.85455 0.766113 13.0809C0.766113 19.6085 5.52086 25.0198 11.7349 26.0013V16.8607H8.43611V13.0809H11.7381V10.1965C11.7381 6.91892 13.68 5.10867 16.6489 5.10867C18.0724 5.10867 19.5592 5.3638 19.5592 5.3638V8.5813H17.9196C16.306 8.5813 15.8022 9.59042 15.8022 10.6255V13.0793H19.4065L18.8312 16.859H15.8006V25.9997C22.0146 25.0182 26.7694 19.6069 26.7694 13.0793Z" fill="#1D5AFF"/>
</g>
<defs>
<clipPath id="clip0_526_5032">
<rect width="26" height="26" fill="white" transform="translate(0.769531)"/>
</clipPath>
</defs>
</svg>
