<svg width="21" height="21" viewBox="0 0 21 21" fill="none" xmlns="http://www.w3.org/2000/svg">
<path d="M5.25 3.60938H15.75V18.0469H5.25V3.60938Z" fill="#E6E7E8"/>
<path d="M3.28125 3.60938C1.10677 3.60938 0 5.22539 0 7.21875V14.4375C0 16.4309 1.10677 18.0469 3.28125 18.0469H5.25V3.60938H3.28125ZM17.7188 3.60938H15.75V18.0469H17.7188C19.8932 18.0469 21 16.4309 21 14.4375V7.21875C21 5.22539 19.8932 3.60938 17.7188 3.60938Z" fill="#EC1C24"/>
<path fill-rule="evenodd" clip-rule="evenodd" d="M14.523 10.7103C14.373 10.6424 14.3477 10.5945 14.3924 10.4288C14.5036 10.0144 14.6181 9.60159 14.7307 9.18782C14.7402 9.15403 14.7487 9.11925 14.7615 9.0697C14.6224 9.09759 14.4924 9.12253 14.3625 9.15075C14.0997 9.20653 13.8385 9.26329 13.5763 9.31875C13.405 9.35451 13.3266 9.30661 13.278 9.13729C13.2324 8.97717 13.1875 8.81672 13.1143 8.63362C13.0976 8.66118 13.0854 8.69301 13.0641 8.71631C12.7639 9.05526 12.462 9.39323 12.1598 9.73218C12.0663 9.83521 11.9623 9.88017 11.8888 9.83948C11.7808 9.77845 11.7847 9.6705 11.8025 9.56976C11.8822 9.12975 11.9649 8.69072 12.0469 8.2507C12.107 7.93143 12.167 7.61381 12.2287 7.28109C12.1975 7.2929 12.1765 7.29881 12.1578 7.308C11.9879 7.39593 11.8199 7.48551 11.6496 7.57148C11.4409 7.67615 11.3359 7.6417 11.2269 7.4399C10.9963 7.01236 10.7676 6.58415 10.5375 6.15628C10.5257 6.13528 10.5179 6.11428 10.4998 6.08737L10.4621 6.15628C10.2327 6.58415 10.0037 7.01236 9.77334 7.4399C9.66408 7.6417 9.55875 7.67648 9.35006 7.57148C9.17977 7.48551 9.01177 7.39593 8.8418 7.308C8.82309 7.29881 8.80209 7.2929 8.77092 7.28109C8.83261 7.61381 8.89266 7.93143 8.9527 8.2507C9.03473 8.6894 9.11775 9.12843 9.19683 9.56976C9.2152 9.67082 9.21881 9.77878 9.11086 9.83948C9.03703 9.88017 8.93334 9.83521 8.84016 9.73218C8.53762 9.39323 8.23575 9.05526 7.93552 8.71631C7.91419 8.69301 7.90172 8.66118 7.88531 8.63362C7.81214 8.81704 7.76719 8.97717 7.72158 9.13729C7.67302 9.30661 7.59394 9.35451 7.42331 9.31875C7.16114 9.26329 6.89962 9.20653 6.63712 9.15075C6.50719 9.12253 6.37725 9.09759 6.23813 9.0697C6.25092 9.11925 6.25913 9.15436 6.26897 9.18782C6.38152 9.60159 6.49603 10.0147 6.60727 10.4288C6.65189 10.5948 6.62663 10.6424 6.47667 10.7103C6.33788 10.7733 6.19941 10.8399 6.05273 10.9085C6.07898 10.9321 6.09375 10.9462 6.11016 10.9597C6.45928 11.2439 6.80841 11.527 7.15819 11.8112C7.49648 12.0862 7.83347 12.3608 8.17209 12.6348C8.29055 12.7303 8.32959 12.8464 8.2807 12.9914C8.25314 13.0768 8.22853 13.1621 8.20294 13.2477C8.17209 13.3484 8.14191 13.4498 8.10778 13.565C8.44345 13.5174 8.76042 13.4731 9.07969 13.4288C9.45408 13.3773 9.82814 13.3245 10.2035 13.2772C10.3321 13.2605 10.4276 13.3586 10.4224 13.4863C10.3942 14.1632 10.3289 14.9274 10.3243 15.5685H10.6754C10.6708 14.9274 10.6058 14.1635 10.5776 13.4863C10.5717 13.3586 10.6675 13.2605 10.7961 13.2772C11.1715 13.3245 11.5455 13.3773 11.9199 13.4288C12.2392 13.4731 12.5562 13.5178 12.8918 13.565C12.8577 13.4498 12.8275 13.3484 12.7967 13.2477C12.7711 13.1617 12.7465 13.0768 12.7189 12.9914C12.67 12.8464 12.7091 12.7303 12.8275 12.6348C13.1665 12.3608 13.5031 12.0862 13.8414 11.8112C14.1912 11.5274 14.5403 11.2439 14.8895 10.9597C14.9059 10.9462 14.9206 10.9321 14.9469 10.9085C14.7999 10.8396 14.6621 10.7733 14.523 10.7103Z" fill="#EC1C24"/>
</svg>
