<svg width="80" height="81" viewBox="0 0 80 81" fill="none" xmlns="http://www.w3.org/2000/svg">
<path d="M74.5 19.1412L60 33.4746C60 33.4746 55.6667 33.4746 51.3333 29.1412C47 24.8079 47 20.4746 47 20.4746L61.5 5.97455C53.3333 3.97455 43.5 6.64122 37.5 12.6412C28.5 21.6412 36.5 33.1412 34.1667 35.4746C21.5 48.6412 8.50001 58.6412 8.16668 59.1412C4.33335 62.9746 4.16668 69.1412 7.83334 72.8079C11.5 76.4746 17.6667 76.3079 21.5 72.4746C22 71.9746 32.6667 58.4746 45.1667 45.9746C47.5 43.6412 58.5 52.1412 67.8333 42.9746C73.6667 36.9746 76.5 27.3079 74.5 19.1412ZM15.6667 69.3079C13.3333 69.3079 11.5 67.4746 11.5 65.1412C11.5 62.6412 13.3333 60.8079 15.6667 60.8079C18 60.8079 19.8333 62.6412 19.8333 64.9746C19.8333 67.3079 18 69.3079 15.6667 69.3079Z" fill="#FAFAFA"/>
</svg>
