<svg width="43" height="45" viewBox="0 0 43 45" fill="none" xmlns="http://www.w3.org/2000/svg">
<path d="M10.6056 40.4584C9.64012 40.4584 8.81389 40.0997 8.12693 39.3823C7.43996 38.6648 7.0959 37.8013 7.09473 36.7918V18.4584C7.09473 17.4501 7.43879 16.5872 8.12693 15.8698C8.81506 15.1523 9.64129 14.793 10.6056 14.7918H12.3611V11.1251C12.3611 8.58899 13.2171 6.42749 14.9293 4.6406C16.6414 2.85371 18.7111 1.95966 21.1383 1.95844C23.5667 1.95844 25.6369 2.85249 27.3491 4.6406C29.0612 6.42871 29.9167 8.59021 29.9155 11.1251V14.7918H31.671C32.6365 14.7918 33.4633 15.1511 34.1514 15.8698C34.8396 16.5884 35.183 17.4513 35.1819 18.4584V36.7918C35.1819 37.8001 34.8384 38.6636 34.1514 39.3823C33.4645 40.1009 32.6376 40.4597 31.671 40.4584H10.6056ZM21.1383 31.2918C22.1038 31.2918 22.9306 30.933 23.6187 30.2156C24.3069 29.4982 24.6504 28.6347 24.6492 27.6251C24.6492 26.6168 24.3057 25.7539 23.6187 25.0364C22.9318 24.319 22.105 23.9597 21.1383 23.9584C20.1728 23.9584 19.3466 24.3178 18.6596 25.0364C17.9726 25.7551 17.6286 26.618 17.6274 27.6251C17.6274 28.6334 17.9715 29.4969 18.6596 30.2156C19.3477 30.9343 20.174 31.293 21.1383 31.2918ZM15.872 14.7918H26.4046V11.1251C26.4046 9.59732 25.8926 8.29871 24.8686 7.22927C23.8446 6.15982 22.6012 5.6251 21.1383 5.6251C19.6754 5.6251 18.432 6.15982 17.408 7.22927C16.384 8.29871 15.872 9.59732 15.872 11.1251V14.7918Z" fill="url(#paint0_linear_588_6048)"/>
<defs>
<linearGradient id="paint0_linear_588_6048" x1="7.09473" y1="21.2095" x2="35.1819" y2="21.2095" gradientUnits="userSpaceOnUse">
<stop stop-color="#E900D7"/>
<stop offset="0.5" stop-color="#7234EC"/>
<stop offset="1" stop-color="#0166FF"/>
</linearGradient>
</defs>
</svg>
