<svg width="43" height="45" viewBox="0 0 43 45" fill="none" xmlns="http://www.w3.org/2000/svg">
<path d="M21.7128 8.83314C19.1324 8.83325 16.613 9.65253 14.4887 11.1823C12.3643 12.7121 10.7354 14.8802 9.81796 17.399C8.90051 19.9178 8.73784 22.6684 9.35154 25.2859C9.96523 27.9035 11.3263 30.2644 13.2542 32.0556C15.1822 33.8468 17.5859 34.9837 20.1467 35.3154C22.7075 35.6471 25.3043 35.1581 27.5929 33.9131C29.8814 32.6681 31.7535 30.7261 32.961 28.3444C34.1685 25.9628 34.6542 23.2541 34.3538 20.5775C34.2344 19.4995 34.9823 18.4581 36.0215 18.4581C36.9255 18.4581 37.7207 19.1145 37.8296 20.0531C38.2895 23.9527 37.4386 27.8981 35.4222 31.2152C33.4059 34.5323 30.3492 37.0152 26.7745 38.2398C23.1997 39.4644 19.3288 39.3547 15.8229 37.9294C12.317 36.504 9.39387 33.8515 7.5528 30.4251C5.71173 26.9987 5.06703 23.0109 5.72883 19.1431C6.39063 15.2753 8.31787 11.7675 11.1813 9.21904C14.0447 6.67058 17.6666 5.23958 21.4281 5.17053C25.1897 5.10148 28.8575 6.39867 31.8049 8.84048V7.91648C31.8049 7.43 31.9899 6.96346 32.3193 6.61947C32.6487 6.27548 33.0954 6.08223 33.5612 6.08223C34.027 6.08223 34.4738 6.27548 34.8031 6.61947C35.1325 6.96346 35.3175 7.43 35.3175 7.91648V12.8628L35.3772 12.9581H35.3175V13.4165C35.3175 13.9027 35.1326 14.369 34.8034 14.7128C34.4742 15.0567 34.0277 15.2498 33.5621 15.2498H28.2958C27.8302 15.2498 27.3837 15.0567 27.0545 14.7128C26.7253 14.369 26.5403 13.9027 26.5403 13.4165C26.5403 12.9302 26.7253 12.4639 27.0545 12.1201C27.3837 11.7763 27.8302 11.5831 28.2958 11.5831H29.4649C27.2434 9.79598 24.517 8.82882 21.7128 8.83314Z" fill="url(#paint0_linear_587_4775)"/>
<defs>
<linearGradient id="paint0_linear_587_4775" x1="5.47559" y1="22.1272" x2="37.9514" y2="22.1272" gradientUnits="userSpaceOnUse">
<stop stop-color="#E900D7"/>
<stop offset="0.5" stop-color="#7234EC"/>
<stop offset="1" stop-color="#0166FF"/>
</linearGradient>
</defs>
</svg>
