<svg width="44" height="44" viewBox="0 0 44 44" fill="none" xmlns="http://www.w3.org/2000/svg">
<path d="M6.6798 26.9314C5.84642 24.9589 5.50001 24.2759 5.50001 22C5.50001 16.7385 7.96266 12.0523 11.7982 9.03097M37.2072 26.9872C38.0406 25.0148 38.5 24.2759 38.5 22C38.5 16.7366 36.0355 12.0488 32.1975 9.02757M14.6692 12.8333C16.5819 11.6686 19.6187 11 22.0026 11C24.3401 11 27.4483 11.7102 29.3359 12.8333M14.6667 12.8333L11.7982 9.03097M29.3333 12.8333L32.1975 9.02757M32.1975 9.02757C29.3907 6.8181 25.8493 5.5 22 5.5C18.1488 5.5 14.6057 6.81945 11.7982 9.03097M14.8498 38.6755C12.0968 39.9592 8.82441 38.7681 7.54068 36.0152L5.99108 32.692C4.70735 29.9391 5.8984 26.6667 8.65137 25.3829C10.4867 24.5271 12.6683 25.3212 13.5241 27.1565L16.6233 33.8027C17.4791 35.638 16.6851 37.8196 14.8498 38.6755ZM28.9932 38.6754C27.1579 37.8196 26.3639 35.638 27.2197 33.8027L30.3189 27.1565C31.1747 25.3211 33.3563 24.5271 35.1916 25.3829C37.9446 26.6667 39.1356 29.9391 37.8519 32.692L36.3023 36.0152C35.0186 38.7681 31.7462 39.9592 28.9932 38.6754Z" stroke="#1D5AFF" stroke-width="4" stroke-linecap="round" stroke-linejoin="round"/>
</svg>
