<svg width="19" height="23" viewBox="0 0 19 23" fill="none" xmlns="http://www.w3.org/2000/svg">
<g clip-path="url(#clip0_3524_5189)">
<path d="M16.1193 2.11717C15.0851 0.951438 13.2157 0.45166 10.8241 0.45166H3.88318C3.64656 0.451669 3.4177 0.535155 3.23775 0.687109C3.0578 0.839063 2.93857 1.04952 2.90148 1.28063L0.0114061 19.4079C-0.0460393 19.7654 0.23384 20.0891 0.600183 20.0891H4.88528L5.96145 13.3384L5.92805 13.5498C6.00472 13.0726 6.41738 12.7207 6.90603 12.7207H8.9423C12.9425 12.7207 16.0748 11.1138 16.9898 6.46551C17.0169 6.32803 17.0405 6.19422 17.0608 6.0635C16.9453 6.00302 16.9453 6.00302 17.0608 6.0635C17.3332 4.34543 17.0589 3.17596 16.1193 2.11717Z" fill="#27346A"/>
<path d="M7.60109 5.44459C7.71824 5.38943 7.84637 5.36084 7.97612 5.36092H13.4177C14.0621 5.36092 14.6631 5.40239 15.2123 5.48981C15.366 5.51404 15.5189 5.54297 15.6707 5.57656C15.886 5.62354 16.0988 5.68103 16.3083 5.74883C16.5783 5.83801 16.8297 5.94187 17.0609 6.0635C17.3332 4.34477 17.0589 3.17596 16.1192 2.11717C15.0845 0.951438 13.2157 0.45166 10.8241 0.45166H3.88258C3.39385 0.45166 2.97808 0.803538 2.90148 1.28063L0.0114065 19.4072C-0.0460389 19.7653 0.23384 20.0885 0.59959 20.0885H4.88528L7.118 6.0861C7.13995 5.94847 7.19539 5.81817 7.27954 5.70643C7.3637 5.59468 7.47404 5.50482 7.60109 5.44459Z" fill="#27346A"/>
<path d="M16.989 6.46549C16.074 11.1131 12.9419 12.7207 8.94155 12.7207H6.90469C6.41603 12.7207 6.0033 13.0726 5.92737 13.5498L4.58854 21.9434C4.53852 22.2562 4.78314 22.5397 5.10317 22.5397H8.7154C8.92232 22.5396 9.12243 22.4666 9.27975 22.3336C9.43706 22.2007 9.54125 22.0166 9.57359 21.8145L9.60877 21.6325L10.2896 17.3653L10.3334 17.1295C10.3658 16.9274 10.47 16.7433 10.6273 16.6104C10.7846 16.4774 10.9847 16.4044 11.1916 16.4043H11.7322C15.2314 16.4043 17.9713 14.9984 18.772 10.9324C19.1062 9.23316 18.9332 7.8145 18.0492 6.81802C17.781 6.5162 17.448 6.26694 17.06 6.06348C17.039 6.19486 17.0162 6.32801 16.989 6.46549Z" fill="#2790C3"/>
<path d="M16.1004 5.68593C15.9577 5.64473 15.8137 5.60825 15.6686 5.57656C15.5166 5.54352 15.3637 5.51479 15.2101 5.49039C14.6603 5.40239 14.0597 5.36084 13.4148 5.36084H7.97385C7.844 5.36055 7.71577 5.38939 7.59882 5.44518C7.47163 5.50522 7.36116 5.59502 7.27697 5.70681C7.19278 5.81859 7.13741 5.94898 7.11566 6.08669L5.95918 13.3384L5.92578 13.5498C6.00186 13.0726 6.41451 12.7207 6.90324 12.7207H8.9401C12.9403 12.7207 16.0725 11.1138 16.9875 6.46551C17.0147 6.32803 17.0376 6.19481 17.0586 6.0635C16.8269 5.94253 16.5761 5.83801 16.306 5.74942C16.2379 5.72708 16.1693 5.70591 16.1004 5.68593" fill="#1F264F"/>
</g>
<defs>
<clipPath id="clip0_3524_5189">
<rect width="19" height="22.1667" fill="white" transform="translate(0 0.391846)"/>
</clipPath>
</defs>
</svg>
