<svg width="37" height="38" viewBox="0 0 37 38" fill="none" xmlns="http://www.w3.org/2000/svg">
<g clip-path="url(#clip0_526_5028)">
<path d="M25.9665 27.4125C25.972 27.9648 26.4242 28.408 26.9764 28.4025C27.5287 28.397 27.9719 27.9449 27.9664 27.3926L25.9665 27.4125ZM10.1469 9.57308C9.59461 9.56759 9.14247 10.0108 9.13698 10.5631C9.13149 11.1154 9.57473 11.5675 10.127 11.573L10.1469 9.57308ZM9.87196 18.0729C9.31971 18.0784 8.87646 18.5305 8.88195 19.0828C8.88744 19.635 9.33958 20.0783 9.89184 20.0728L9.87196 18.0729ZM17.4667 27.6477C17.4613 28.1999 17.9045 28.6521 18.4568 28.6576C19.009 28.663 19.4612 28.2198 19.4666 27.6675L17.4667 27.6477ZM11.2751 26.2644C10.8845 25.8739 10.2514 25.8739 9.86086 26.2644C9.47033 26.655 9.47033 27.2881 9.86086 27.6786L11.2751 26.2644ZM9.87288 27.6907C10.2634 28.0812 10.8966 28.0812 11.2871 27.6907C11.6776 27.3001 11.6776 26.667 11.2871 26.2765L9.87288 27.6907ZM21.2809 16.2586C24.3647 19.3424 25.9263 23.3697 25.9665 27.4125L27.9664 27.3926C27.9213 22.8476 26.1639 18.3132 22.6951 14.8444L21.2809 16.2586ZM10.127 11.573C14.1698 11.6132 18.1971 13.1748 21.2809 16.2586L22.6951 14.8444C19.2263 11.3756 14.6919 9.61825 10.1469 9.57308L10.127 11.573ZM9.89184 20.0728C11.8379 20.0534 13.7866 20.7854 15.2704 22.2692L16.6846 20.8549C14.8055 18.9759 12.3332 18.0484 9.87196 18.0729L9.89184 20.0728ZM15.2704 22.2692C16.7541 23.7529 17.4861 25.7016 17.4667 27.6477L19.4666 27.6675C19.4911 25.2063 18.5636 22.734 16.6846 20.8549L15.2704 22.2692ZM9.86086 27.6786L9.87288 27.6907L11.2871 26.2765L11.2751 26.2644L9.86086 27.6786Z" fill="#1D5AFF"/>
</g>
<defs>
<clipPath id="clip0_526_5028">
<rect width="26" height="26" fill="white" transform="translate(18.3848 0.769531) rotate(45)"/>
</clipPath>
</defs>
</svg>
